<svg id="eD5ynvfCLJK1" xmlns="http://www.w3.org/2000/svg" xmlns:xlink="http://www.w3.org/1999/xlink" viewBox="0 0 300 300" shape-rendering="geometricPrecision" text-rendering="geometricPrecision"><path d="M66.68136,187.79757c7.12426-7.12426,18.07324-9.44904,25.92136-15.87022c20.7142-16.94798,43.63159-30.40313,60.30682-51.84271c4.62641-5.94824,20.38017-21.77367,14.8122-30.68242-5.57805-8.92489-28.89091-2.73942-35.97249.52901-19.1398,8.83376-92.65101,59.83286-70.88697,87.8152c8.11056,10.42787,24.63696-27.73475,16.92823-35.44348-3.46701-3.46701-7.45789,3.98667-5.29007,6.87709c3.10888,4.14518,25.22413,14.04267,12.16717,22.74731-1.95563,1.30376-6.18443,2.20875-8.46412,1.58702-3.74981-1.02267-7.94749-10.04742-2.64504-11.63816c6.71012-2.01304,10.10397,8.1732,16.92823,4.76107c3.55713-1.77856-1.16285-10.50152,1.05801-12.16717.59713-.44785,4.30662,4.72378,7.4061,3.17404c3.85996-1.92998,5.1805-13.71766,5.29007-13.75419c1.97126-.65709,3.48024,9.21594,8.99312,3.70305c2.36794-2.36794.84282-10.78936,2.11603-11.63816.09861-.06574,5.62097,7.84682,8.99312,6.34809c5.38019-2.3912,2.81245-11.36696,5.29007-13.22518.33196-.24897,7.3202,4.35187,10.05114,2.64504c2.43324-1.52077,3.54351-6.55801,4.76107-8.99312.94953-1.89906,3.95267-22.84121-2.11603-17.98625-4.91769,3.93416,12.75767,42.97258,15.87022,49.19767" transform="matrix(1.984202 0.176884-.172704 1.937313-50.630231-134.031966)" fill="none" stroke="#007BFF" stroke-width="2" stroke-linecap="round"/></svg>
